REM DIRINDEX 1\2,1\3\5,1\3\6,1\4\7,1\4\8
REM DIRNAME folder01,folder02,folder03,folder04,folder05,folder06,folder07,folder08
TITLE ""
FILE "EG_E3_02.mp3" MP3
  TRACK 01 AUDIO
    TITLE "0:"
    INDEX 01 00:00:00
  TRACK 02 AUDIO
    TITLE "5:cjc139_0911"
    INDEX 01 00:00:17
  TRACK 03 AUDIO
    TITLE "6:cjc139_0912"
    INDEX 01 00:01:34
  TRACK 04 AUDIO
    TITLE "5:cjc139_0913"
    INDEX 01 00:04:21
  TRACK 05 AUDIO
    TITLE "6:cjc139_0914"
    INDEX 01 00:06:00
  TRACK 06 AUDIO
    TITLE "5:cjc139_0915"
    INDEX 01 00:08:60
  TRACK 07 AUDIO
    TITLE "6:cjc139_0916"
    INDEX 01 00:10:53
  TRACK 08 AUDIO
    TITLE "5:cjc139_0917"
    INDEX 01 00:13:37
  TRACK 09 AUDIO
    TITLE "6:cjc139_0918"
    INDEX 01 00:15:21
  TRACK 10 AUDIO
    TITLE "5:cjc139_0919"
    INDEX 01 00:18:05
  TRACK 11 AUDIO
    TITLE "6:cjc139_0920"
    INDEX 01 00:19:16
  TRACK 12 AUDIO
    TITLE "5:cjc139_0921"
    INDEX 01 00:22:05
  TRACK 13 AUDIO
    TITLE "6:cjc139_0922"
    INDEX 01 00:23:40
  TRACK 14 AUDIO
    TITLE "5:cjc139_0923"
    INDEX 01 00:26:26
  TRACK 15 AUDIO
    TITLE "6:cjc139_0924"
    INDEX 01 00:28:06
  TRACK 16 AUDIO
    TITLE "5:cjc139_0925"
    INDEX 01 00:30:67
  TRACK 17 AUDIO
    TITLE "6:cjc139_0926"
    INDEX 01 00:32:66
  TRACK 18 AUDIO
    TITLE "5:cjc139_0927"
    INDEX 01 00:35:53
  TRACK 19 AUDIO
    TITLE "6:cjc139_0928"
    INDEX 01 00:37:14
  TRACK 20 AUDIO
    TITLE "5:cjc139_0929"
    INDEX 01 00:40:01
  TRACK 21 AUDIO
    TITLE "6:cjc139_0930"
    INDEX 01 00:42:12
  TRACK 22 AUDIO
    TITLE "5:cjc139_0931"
    INDEX 01 00:44:71
  TRACK 23 AUDIO
    TITLE "6:cjc139_0932"
    INDEX 01 00:47:64
  TRACK 24 AUDIO
    TITLE "5:cjc139_0933"
    INDEX 01 00:50:50
  TRACK 25 AUDIO
    TITLE "6:cjc139_0934"
    INDEX 01 00:52:49
  TRACK 26 AUDIO
    TITLE "5:cjc139_0935"
    INDEX 01 00:55:36
  TRACK 27 AUDIO
    TITLE "6:cjc139_0936"
    INDEX 01 00:57:46
  TRACK 28 AUDIO
    TITLE "5:cjc139_0937"
    INDEX 01 01:00:27
  TRACK 29 AUDIO
    TITLE "6:cjc139_0938"
    INDEX 01 01:01:50
  TRACK 30 AUDIO
    TITLE "5:cjc139_0939"
    INDEX 01 01:04:35
  TRACK 31 AUDIO
    TITLE "6:cjc139_0940"
    INDEX 01 01:06:10
  TRACK 32 AUDIO
    TITLE "5:cjc139_0941"
    INDEX 01 01:08:72
  TRACK 33 AUDIO
    TITLE "6:cjc139_0942"
    INDEX 01 01:11:27
  TRACK 34 AUDIO
    TITLE "5:cjc139_0943"
    INDEX 01 01:14:14
  TRACK 35 AUDIO
    TITLE "6:cjc139_0944"
    INDEX 01 01:15:66
  TRACK 36 AUDIO
    TITLE "5:cjc139_0945"
    INDEX 01 01:18:53
  TRACK 37 AUDIO
    TITLE "6:cjc139_0946"
    INDEX 01 01:20:16
  TRACK 38 AUDIO
    TITLE "5:cjc139_0947"
    INDEX 01 01:23:01
  TRACK 39 AUDIO
    TITLE "6:cjc139_0948"
    INDEX 01 01:25:25
  TRACK 40 AUDIO
    TITLE "5:cjc139_0949"
    INDEX 01 01:28:10
  TRACK 41 AUDIO
    TITLE "6:cjc139_0950"
    INDEX 01 01:30:30
  TRACK 42 AUDIO
    TITLE "5:cjc139_0951"
    INDEX 01 01:33:15
  TRACK 43 AUDIO
    TITLE "6:cjc139_0952"
    INDEX 01 01:35:37
  TRACK 44 AUDIO
    TITLE "5:cjc139_0953"
    INDEX 01 01:38:22
  TRACK 45 AUDIO
    TITLE "6:cjc139_0954"
    INDEX 01 01:40:44
  TRACK 46 AUDIO
    TITLE "5:cjc139_0955"
    INDEX 01 01:43:27
  TRACK 47 AUDIO
    TITLE "6:cjc139_0956"
    INDEX 01 01:45:08
  TRACK 48 AUDIO
    TITLE "5:cjc139_0957"
    INDEX 01 01:47:66
  TRACK 49 AUDIO
    TITLE "6:cjc139_0958"
    INDEX 01 01:49:73
  TRACK 50 AUDIO
    TITLE "5:cjc139_0959"
    INDEX 01 01:52:57
  TRACK 51 AUDIO
    TITLE "6:cjc139_0960"
    INDEX 01 01:55:01
  TRACK 52 AUDIO
    TITLE "5:cjc139_0961"
    INDEX 01 01:57:62
  TRACK 53 AUDIO
    TITLE "6:cjc139_0962"
    INDEX 01 02:00:35
  TRACK 54 AUDIO
    TITLE "5:cjc139_0963"
    INDEX 01 02:03:20
  TRACK 55 AUDIO
    TITLE "6:cjc139_0964"
    INDEX 01 02:05:27
  TRACK 56 AUDIO
    TITLE "5:cjc139_0965"
    INDEX 01 02:08:11
  TRACK 57 AUDIO
    TITLE "6:cjc139_0966"
    INDEX 01 02:09:68
  TRACK 58 AUDIO
    TITLE "5:cjc139_0967"
    INDEX 01 02:12:54
  TRACK 59 AUDIO
    TITLE "6:cjc139_0968"
    INDEX 01 02:14:47
  TRACK 60 AUDIO
    TITLE "5:cjc139_0969"
    INDEX 01 02:17:34
  TRACK 61 AUDIO
    TITLE "6:cjc139_0970"
    INDEX 01 02:18:66
  TRACK 62 AUDIO
    TITLE "5:cjc139_0971"
    INDEX 01 02:21:49
  TRACK 63 AUDIO
    TITLE "6:cjc139_0972"
    INDEX 01 02:23:44
  TRACK 64 AUDIO
    TITLE "0:"
    INDEX 01 02:26:37
